<svg viewBox="0 0 24 24" fill="currentColor" xmlns="http://www.w3.org/2000/svg">
  <defs>
    <linearGradient id="instagram-gradient" x1="0%" y1="100%" x2="100%" y2="0%">
      <stop offset="0%" style="stop-color:#feda75;stop-opacity:1" />
      <stop offset="5%" style="stop-color:#fa7e1e;stop-opacity:1" />
      <stop offset="45%" style="stop-color:#d92e7f;stop-opacity:1" />
      <stop offset="60%" style="stop-color:#9b36b7;stop-opacity:1" />
      <stop offset="90%" style="stop-color:#515bd4;stop-opacity:1" />
    </linearGradient>
  </defs>
  <rect width="24" height="24" rx="5" fill="url(#instagram-gradient)"/>
  <path d="M12 2.163c3.204 0 3.584.012 4.85.07 3.252.148 4.771 1.691 4.919 4.919.058 1.265.069 1.645.069 4.849 0 3.205-.012 3.584-.069 4.849-.149 3.225-1.664 4.771-4.919 4.919-1.266.057-1.645.069-4.849.069-3.204 0-3.584-.012-4.849-.069-3.259-.149-4.771-1.699-4.919-4.92-.058-1.265-.07-1.644-.07-4.849 0-3.204.013-3.583.07-4.849.149-3.227 1.664-4.771 4.919-4.919 1.266-.057 1.645-.069 4.849-.069zm0-2.163c-3.259 0-3.667.014-4.947.072-4.358.2-6.78 2.618-6.98 6.98-.059 1.281-.073 1.689-.073 4.948 0 3.259.014 3.668.072 4.948.2 4.358 2.618 6.78 6.98 6.98 1.281.058 1.689.072 4.948.072 3.259 0 3.668-.014 4.948-.072 4.354-.2 6.782-2.618 6.979-6.98.059-1.28.073-1.689.073-4.948 0-3.259-.014-3.667-.072-4.947-.196-4.354-2.617-6.78-6.979-6.98-1.281-.059-1.69-.073-4.949-.073z" fill="white"/>
  <circle cx="12" cy="12" r="3.5" fill="white"/>
  <circle cx="18.5" cy="5.5" r="1.5" fill="white"/>
</svg>